<svg>
<path transform="matrix(0.6656804633555446,0,0,0.6656804633555446,24,10)" d="M101.4,0C45.4,0,0,45.4,0,101.4c0,56,45.4,101.4,101.4,101.4c56,0,101.4-45.4,101.4-101.4C202.8,45.4,157.4,0,101.4,0z     M27.2,53.2l4.1,4.1v25.9L18.6,70.4C20.8,64.3,23.8,58.6,27.2,53.2z M101.4,189.8c-48.8,0-88.4-39.6-88.4-88.4    c0-9.1,1.4-17.9,3.9-26.1l14.5,14.5v28.5h0l-0.1,0.1l23.2,23.2c-3.6,5.2-3.1,12.4,1.5,17c5.2,5.2,13.6,5.2,18.8,0    c5.2-5.2,5.2-13.6,0-18.8c-4.6-4.6-11.8-5.1-17-1.5L36,116.5v-22l15.4,15.4c-3.6,5.2-3.1,12.4,1.5,17c5.2,5.2,13.6,5.2,18.8,0    s5.2-13.6,0-18.8c-4.6-4.6-11.8-5.1-17-1.5L36,87.9l0-32.4l0,0l-6.1-6.1c2.1-2.9,4.4-5.6,6.8-8.2L54,58.3l0,20.6h0L53.9,79l41,41    c-3.6,5.2-3.1,12.4,1.5,17c5.2,5.2,13.6,5.2,18.8,0c5.2-5.2,5.2-13.6,0-18.8c-4.6-4.6-11.8-5.1-17-1.5L58.6,77.1l0-20.6l0,0    L40,37.8c1.3-1.2,2.6-2.4,4-3.6l92.4,92.4c-3.6,5.2-3.1,12.4,1.5,17c5.3,5.3,14,5.2,19.2-0.4c4.8-5.2,4.6-13.4-0.3-18.4    c-4.6-4.7-11.9-5.2-17.1-1.5L47.6,31.2c1.4-1.1,2.9-2.2,4.5-3.2l31.7,31.7v0h0l0,0l0,0h20.5l14,14c-3.6,5.2-3.1,12.4,1.5,17    c5.2,5.2,13.6,5.2,18.8,0c5.2-5.2,5.2-13.6,0-18.8c-4.6-4.6-11.8-5.1-17-1.5l-15.4-15.4l0,0H85.7L56,25.5    c8.9-5.3,18.9-9.2,29.5-11.1l17.9,17.9c-3.6,5.2-3.1,12.4,1.5,17c5.2,5.2,13.6,5.2,18.8,0c5.2-5.2,5.2-13.6,0-18.8    c-4.6-4.6-11.8-5.1-17-1.5L91.2,13.6c3.3-0.4,6.7-0.6,10.2-0.6c48.8,0,88.4,39.6,88.4,88.4S150.2,189.8,101.4,189.8z M59.3,143    c3.4-3.4,8.9-3.4,12.3,0c3.4,3.4,3.4,8.9,0,12.3c-3.4,3.4-8.9,3.4-12.3,0C55.9,151.9,55.9,146.4,59.3,143z M56.2,111.3    c3.4-3.4,8.9-3.4,12.3,0c3.4,3.4,3.4,8.9,0,12.3c-3.4,3.4-8.9,3.4-12.3,0C52.8,120.3,52.8,114.7,56.2,111.3z M99.6,121.4    c3.4-3.4,8.9-3.4,12.3,0c3.4,3.4,3.4,8.9,0,12.3c-3.4,3.4-8.9,3.4-12.3,0C96.3,130.3,96.3,124.8,99.6,121.4z M141.1,128.1    c3.4-3.4,8.9-3.4,12.3,0c3.4,3.4,3.4,8.9,0,12.3c-3.4,3.4-8.9,3.4-12.3,0C137.7,137,137.7,131.5,141.1,128.1z M123.1,75.3    c3.4-3.4,8.9-3.4,12.3,0c3.4,3.4,3.4,8.9,0,12.3c-3.4,3.4-8.9,3.4-12.3,0C119.7,84.2,119.7,78.7,123.1,75.3z M108.1,33.7    c3.4-3.4,8.9-3.4,12.3,0c3.4,3.4,3.4,8.9,0,12.3c-3.4,3.4-8.9,3.4-12.3,0C104.7,42.7,104.7,37.1,108.1,33.7z"></path>
</svg>
